<svg xmlns="http://www.w3.org/2000/svg" viewBox="0 0 512 512" width="512" height="512" role="img" aria-label="QASkills.sh logo">
  <rect width="512" height="512" rx="96" fill="#2563eb"/>
  <path d="M256 116c-66 0-120 54-120 120 0 66 54 120 120 120 24 0 46-7 65-19l29 29 34-34-28-28c12-19 19-41 19-68 0-66-54-120-120-120zm0 56c35 0 64 29 64 64s-29 64-64 64-64-29-64-64 29-64 64-64z" fill="#ffffff"/>
  <rect x="300" y="300" width="104" height="28" rx="14" fill="#ffffff"/>
  <rect x="300" y="344" width="72" height="28" rx="14" fill="#ffffff" opacity="0.7"/>
</svg>
