<svg xmlns="http://www.w3.org/2000/svg" viewBox="0 0 1600 900" role="img" aria-labelledby="title desc">
  <title id="title">Playwright MCP browser automation for AI agents</title>
  <desc id="desc">An MCP client securely connected to browser profiles, testing tools, snapshots, and a remote server.</desc>
  <defs><linearGradient id="bg" x1="0" y1="1" x2="1" y2="0"><stop stop-color="#17132d"/><stop offset=".55" stop-color="#203f61"/><stop offset="1" stop-color="#0b6a68"/></linearGradient><radialGradient id="glow" cx=".78" cy=".2" r=".65"><stop stop-color="#55e6c1" stop-opacity=".44"/><stop offset="1" stop-color="#55e6c1" stop-opacity="0"/></radialGradient><filter id="s"><feDropShadow dx="0" dy="22" stdDeviation="24" flood-color="#080716" flood-opacity=".55"/></filter></defs>
  <rect width="1600" height="900" fill="url(#bg)"/><rect width="1600" height="900" fill="url(#glow)"/>
  <g opacity=".12" stroke="#d7fff7"><path d="M0 180h1600M0 360h1600M0 540h1600M0 720h1600"/><path d="M200 0v900M400 0v900M600 0v900M800 0v900M1000 0v900M1200 0v900M1400 0v900"/></g>
  <text x="145" y="132" fill="#f5fffd" font-family="ui-sans-serif,system-ui,sans-serif" font-size="62" font-weight="750">PLAYWRIGHT MCP</text><text x="150" y="180" fill="#9ff4df" font-family="ui-monospace,monospace" font-size="23" letter-spacing="5">CLIENT / SERVER / BROWSER / ASSERT</text>
  <g transform="translate(130 280)" filter="url(#s)"><rect width="330" height="310" rx="32" fill="#11162d" stroke="#8ca8ff" stroke-width="2"/><text x="165" y="72" text-anchor="middle" fill="#cbd6ff" font-family="ui-monospace,monospace" font-size="25">AI CLIENT</text><circle cx="165" cy="164" r="62" fill="#263b68"/><path d="M130 165h70M165 130v70" stroke="#9ff4df" stroke-width="13" stroke-linecap="round"/><text x="165" y="270" text-anchor="middle" fill="#8ca8ff" font-family="ui-sans-serif,system-ui,sans-serif" font-size="21">Codex · Claude · VS Code</text></g>
  <path d="M485 435H650" stroke="#9ff4df" stroke-width="6" stroke-dasharray="15 13"/><path d="m635 415 30 20-30 20" fill="none" stroke="#9ff4df" stroke-width="6"/>
  <g transform="translate(670 235)" filter="url(#s)"><rect width="350" height="400" rx="36" fill="#0c2636" stroke="#55e6c1" stroke-width="3"/><text x="175" y="73" text-anchor="middle" fill="#f5fffd" font-family="ui-monospace,monospace" font-size="27">MCP SERVER</text><rect x="46" y="112" width="258" height="58" rx="18" fill="#16465a"/><text x="175" y="149" text-anchor="middle" fill="#9ff4df" font-family="ui-monospace,monospace" font-size="20">tools / snapshots</text><rect x="46" y="194" width="258" height="58" rx="18" fill="#16465a"/><text x="175" y="231" text-anchor="middle" fill="#9ff4df" font-family="ui-monospace,monospace" font-size="20">profiles / secrets</text><rect x="46" y="276" width="258" height="58" rx="18" fill="#16465a"/><text x="175" y="313" text-anchor="middle" fill="#9ff4df" font-family="ui-monospace,monospace" font-size="20">assert / generate</text></g>
  <path d="M1040 435h150" stroke="#ffd166" stroke-width="6" stroke-dasharray="15 13"/><path d="m1175 415 30 20-30 20" fill="none" stroke="#ffd166" stroke-width="6"/>
  <g transform="translate(1215 285)" filter="url(#s)"><rect width="260" height="300" rx="30" fill="#f6f4ec"/><rect x="28" y="30" width="204" height="42" rx="12" fill="#203f61"/><rect x="28" y="98" width="204" height="148" rx="18" fill="#d9ebe6"/><path d="m85 178 30 30 65-78" fill="none" stroke="#0b6a68" stroke-width="17" stroke-linecap="round" stroke-linejoin="round"/><text x="130" y="278" text-anchor="middle" fill="#203f61" font-family="ui-monospace,monospace" font-size="19">BROWSER VERIFIED</text></g>
</svg>
