<svg xmlns="http://www.w3.org/2000/svg" viewBox="0 0 1600 900" role="img" aria-labelledby="title desc">
  <title id="title">Promptfoo evaluation and red team testing matrix</title><desc id="desc">A model and prompt matrix feeds deterministic assertions, red-team probes, coding-agent providers, and MCP security checks.</desc>
  <defs><linearGradient id="bg" x1="0" y1="0" x2="1" y2="1"><stop stop-color="#24121a"/><stop offset=".52" stop-color="#5a2e35"/><stop offset="1" stop-color="#d46a3a"/></linearGradient><radialGradient id="g" cx=".8" cy=".15" r=".68"><stop stop-color="#ffe29a" stop-opacity=".45"/><stop offset="1" stop-color="#ffe29a" stop-opacity="0"/></radialGradient><filter id="s"><feDropShadow dx="0" dy="22" stdDeviation="25" flood-color="#16080d" flood-opacity=".6"/></filter></defs>
  <rect width="1600" height="900" fill="url(#bg)"/><rect width="1600" height="900" fill="url(#g)"/><text x="145" y="132" fill="#fff9f2" font-family="ui-sans-serif,system-ui,sans-serif" font-size="62" font-weight="750">PROMPTFOO</text><text x="150" y="180" fill="#ffd9b0" font-family="ui-monospace,monospace" font-size="23" letter-spacing="5">EVAL / RED TEAM / AGENTS / MCP</text>
  <g transform="translate(135 250)" filter="url(#s)"><rect width="1020" height="520" rx="38" fill="#1c1117" stroke="#ffd9b0" stroke-opacity=".45" stroke-width="2"/><g transform="translate(58 58)" font-family="ui-monospace,monospace"><rect width="904" height="62" rx="16" fill="#4f2930"/><text x="34" y="40" fill="#ffe29a" font-size="22">provider × prompt × assertion</text><g stroke="#80505a" fill="#2d1921"><rect y="91" width="210" height="90" rx="14"/><rect x="231" y="91" width="210" height="90" rx="14"/><rect x="462" y="91" width="210" height="90" rx="14"/><rect x="693" y="91" width="211" height="90" rx="14"/><rect y="202" width="210" height="90" rx="14"/><rect x="231" y="202" width="210" height="90" rx="14"/><rect x="462" y="202" width="210" height="90" rx="14"/><rect x="693" y="202" width="211" height="90" rx="14"/><rect y="313" width="210" height="90" rx="14"/><rect x="231" y="313" width="210" height="90" rx="14"/><rect x="462" y="313" width="210" height="90" rx="14"/><rect x="693" y="313" width="211" height="90" rx="14"/></g><g fill="#86efb4" font-size="28" text-anchor="middle"><text x="105" y="147">PASS</text><text x="336" y="147">PASS</text><text x="567" y="258">PASS</text><text x="798" y="369">PASS</text></g><g fill="#ff867d" font-size="28" text-anchor="middle"><text x="567" y="147">FAIL</text><text x="798" y="147">FAIL</text><text x="105" y="258">FAIL</text><text x="336" y="369">FAIL</text></g></g></g>
  <g transform="translate(1210 305)" filter="url(#s)"><path d="M140 0 280 55v130c0 105-62 172-140 212C62 357 0 290 0 185V55Z" fill="#24141b" stroke="#ffe29a" stroke-width="4"/><path d="m78 190 39 39 86-107" fill="none" stroke="#86efb4" stroke-width="23" stroke-linecap="round" stroke-linejoin="round"/><text x="140" y="460" text-anchor="middle" fill="#fff9f2" font-family="ui-sans-serif,system-ui,sans-serif" font-size="27" font-weight="700">SECURITY GATE</text></g>
</svg>
