<svg xmlns="http://www.w3.org/2000/svg" viewBox="0 0 1600 900" role="img" aria-labelledby="title desc">
  <title id="title">RAG testing across retrieval generation and citations</title><desc id="desc">Documents flow through retrieval and generation while QA metrics independently score context, faithfulness, answers, and source attribution.</desc>
  <defs><linearGradient id="bg" x1="0" y1="1" x2="1" y2="0"><stop stop-color="#071b25"/><stop offset=".55" stop-color="#164a57"/><stop offset="1" stop-color="#31856d"/></linearGradient><radialGradient id="g" cx=".8" cy=".16" r=".67"><stop stop-color="#ffe08a" stop-opacity=".4"/><stop offset="1" stop-color="#ffe08a" stop-opacity="0"/></radialGradient><filter id="s"><feDropShadow dx="0" dy="22" stdDeviation="25" flood-color="#031015" flood-opacity=".6"/></filter></defs>
  <rect width="1600" height="900" fill="url(#bg)"/><rect width="1600" height="900" fill="url(#g)"/><text x="145" y="132" fill="#f6fffb" font-family="ui-sans-serif,system-ui,sans-serif" font-size="62" font-weight="750">RAG QA TESTING</text><text x="150" y="180" fill="#b6f0dc" font-family="ui-monospace,monospace" font-size="23" letter-spacing="5">RETRIEVE / GROUND / ANSWER / CITE</text>
  <g transform="translate(115 278)" filter="url(#s)"><rect width="300" height="330" rx="34" fill="#0d2c36" stroke="#8ceac9" stroke-width="2"/><g transform="translate(55 48)"><rect width="190" height="240" rx="18" fill="#edf7f2"/><path d="M34 55h122M34 94h98M34 133h122M34 172h76" stroke="#31856d" stroke-width="11" stroke-linecap="round" opacity=".55"/></g><text x="150" y="382" text-anchor="middle" fill="#fff" font-family="ui-sans-serif,system-ui,sans-serif" font-size="25">SOURCE CORPUS</text></g>
  <path d="M445 445h125" stroke="#ffe08a" stroke-width="7"/><path d="m553 424 31 21-31 21" fill="none" stroke="#ffe08a" stroke-width="7"/>
  <g transform="translate(590 278)" filter="url(#s)"><rect width="420" height="330" rx="34" fill="#123944" stroke="#8ceac9" stroke-width="2"/><circle cx="122" cy="130" r="70" fill="#205b5d"/><path d="M84 130h76M122 92v76" stroke="#8ceac9" stroke-width="14" stroke-linecap="round"/><path d="M230 82h136M230 126h102M230 170h122" stroke="#b6f0dc" stroke-width="12" stroke-linecap="round" opacity=".5"/><text x="210" y="278" text-anchor="middle" fill="#fff" font-family="ui-sans-serif,system-ui,sans-serif" font-size="25">RETRIEVAL + GENERATION</text></g>
  <path d="M1040 445h125" stroke="#ffe08a" stroke-width="7"/><path d="m1148 424 31 21-31 21" fill="none" stroke="#ffe08a" stroke-width="7"/>
  <g transform="translate(1185 278)" filter="url(#s)"><rect width="300" height="330" rx="34" fill="#f2f7ef"/><path d="M58 86h184M58 132h148M58 178h168" stroke="#31856d" stroke-width="13" stroke-linecap="round" opacity=".48"/><circle cx="100" cy="249" r="30" fill="#31856d"/><circle cx="165" cy="249" r="30" fill="#ffe08a"/><circle cx="230" cy="249" r="30" fill="#8ceac9"/><text x="150" y="382" text-anchor="middle" fill="#fff" font-family="ui-sans-serif,system-ui,sans-serif" font-size="25">SCORED ANSWER</text></g>
  <text x="800" y="770" text-anchor="middle" fill="#b6f0dc" font-family="ui-monospace,monospace" font-size="22" letter-spacing="4">PRECISION · RECALL · FAITHFULNESS · ATTRIBUTION</text>
</svg>
